<?xml version="1.0" encoding="UTF-8"?><svg id="design_W" xmlns="http://www.w3.org/2000/svg" viewBox="0 0 122.33 94.04"><defs><style>.cls-1{fill:#fff;}</style></defs><path class="cls-1" d="M111.53,66.97c.94,7.66-17.24,13.43-23.12,14.77-21.6,4.92-47.23,4.48-67.7-4.58-3.55-1.87-10.66-5.43-9.89-10.27,.11-.38,.66-.32,.68,.07,.55,3.85,7.06,5.52,10.29,6.58,20.75,5.87,65.23,6.45,84.9-2.28,1.75-.92,3.97-2.18,4.14-4.3,0-.43,.67-.44,.7,0h0Z"/><path class="cls-1" d="M51.49,54.6c9.61,5.4,8.04,15.04,8.04,15.04,0,0-17.16,.88-26.77-4.52-9.61-5.4-17.23-22.27-17.23-22.27,0,0,26.35,6.35,35.96,11.75Z"/><path class="cls-1" d="M71.45,54.6c-9.61,5.4-8.04,15.04-8.04,15.04,0,0,17.16,.88,26.77-4.52,9.61-5.4,17.23-22.27,17.23-22.27,0,0-26.35,6.35-35.96,11.75Z"/><path class="cls-1" d="M78.4,30.1c-7.98,7.98-8.96,19.92-8.96,19.92,0,0,11.95-.98,19.92-8.96,7.98-7.98,8.96-19.92,8.96-19.92,0,0-11.95,.98-19.92,8.96Z"/><path class="cls-1" d="M44.55,30.1c7.98,7.98,8.96,19.92,8.96,19.92,0,0-11.95-.98-19.92-8.96-7.98-7.98-8.96-19.92-8.96-19.92,0,0,11.95,.98,19.92,8.96Z"/><path class="cls-1" d="M53.41,29.6c0,11.28,7.75,20.42,7.75,20.42,0,0,7.75-9.14,7.75-20.42,0-11.28-7.75-20.42-7.75-20.42,0,0-7.75,9.14-7.75,20.42Z"/></svg>