<?xml version="1.0" encoding="utf-8"?>
<!-- Generator: Adobe Illustrator 26.5.0, SVG Export Plug-In . SVG Version: 6.00 Build 0)  -->
<svg version="1.1" id="Laag_1" xmlns="http://www.w3.org/2000/svg" xmlns:xlink="http://www.w3.org/1999/xlink" x="0px" y="0px"
	 viewBox="0 0 56 56" style="enable-background:new 0 0 56 56;" xml:space="preserve">
<style type="text/css">
	.st0{fill:#FFFFFF;}
</style>
<path class="st0" d="M42.1,7c1.1,0,2.2,0.4,3.1,1.1s1.4,1.8,1.6,2.9l0,0.4l2,32.7c0.1,1.2-0.3,2.4-1.1,3.4c-0.8,0.9-1.9,1.5-3.2,1.6
	l-0.4,0H11.8c-1.2,0-2.4-0.5-3.3-1.3c-0.9-0.9-1.4-2-1.4-3.3l0-0.3l2-32.7c0.1-1.1,0.5-2.2,1.3-3c0.8-0.8,1.8-1.3,3-1.4l0.4,0H42.1z
	 M42.1,11.7H13.9l-2,32.7h32.4L42.1,11.7L42.1,11.7z M35,16.3c0.6,0,1.2,0.2,1.6,0.7c0.4,0.4,0.7,1,0.7,1.6c0,2.5-1,4.8-2.7,6.6
	C32.8,27,30.5,28,28,28s-4.8-1-6.6-2.7c-1.8-1.8-2.7-4.1-2.7-6.6c0-0.6,0.2-1.2,0.7-1.6c0.4-0.4,1-0.7,1.6-0.7
	c0.6,0,1.2,0.2,1.6,0.7c0.4,0.4,0.7,1,0.7,1.6c0,1.2,0.5,2.4,1.3,3.3c0.8,0.9,2,1.4,3.2,1.4c1.2,0,2.4-0.4,3.3-1.2
	c0.9-0.8,1.5-1.9,1.5-3.1l0-0.4c0-0.6,0.2-1.2,0.7-1.6C33.8,16.6,34.4,16.3,35,16.3L35,16.3z"/>
</svg>
