<?xml version="1.0" encoding="UTF-8"?><svg id="Layer_1" xmlns="http://www.w3.org/2000/svg" viewBox="0 0 429.73 80.14"><defs><style>.cls-1{fill:#fff;}.cls-2{fill:#e50069;}.cls-3{fill:#5c2483;}.cls-4{fill:#0bbbef;}</style></defs><path class="cls-1" d="M33.4,62.74L0,40.08,33.4,17.41l33.4,22.67-33.4,22.67Z"/><path class="cls-1" d="M33.4,80.14L0,57.48l33.4-22.67,33.4,22.67-33.4,22.67Z"/><path class="cls-1" d="M33.4,45.33L0,22.67,33.4,0l33.4,22.67-33.4,22.67Z"/><g><g><path class="cls-3" d="M97,18.45h-5.94v6.98h6.95v3.89h-6.95v6.98h2.84v3.67h-10.37v-3.67h2.27V18.45h-2.7v-3.67h18.21l.22,7.41h-4.32l-.22-3.74Z"/><path class="cls-3" d="M111.61,20.72c6.33,0,9.9,3.49,9.9,10.04,0,5.62-3.89,9.65-9.9,9.65s-9.9-3.24-9.9-9.65c0-5.4,3.74-10.04,9.9-10.04Zm0,15.59c3.1,0,4.43-2.05,4.43-5.43,0-4.03-1.33-6.05-4.43-6.05s-4.43,2.63-4.43,6.05,1.33,5.43,4.43,5.43Z"/><path class="cls-3" d="M125.66,24.82h-2.45v-3.67h7.31c0,1.29-.07,2.56-.32,4.32h.07c.76-3.17,2.52-4.75,5.4-4.75,.61,0,1.12,.11,1.66,.22l-.32,4.5c-.54-.11-1.12-.18-1.62-.18-2.74,0-4.68,1.87-4.68,4.97v6.08h2.38v3.67h-9.47v-3.67h2.05v-11.48Z"/><path class="cls-3" d="M163.9,36.3h1.84v-7.74c0-2.59-1.37-3.53-3.28-3.53-2.45,0-4,1.98-4,5v6.26h2.16v3.67h-9.03v-3.67h1.84v-7.74c0-2.59-1.37-3.53-3.28-3.53-2.66,0-4,2.16-4,5v6.26h2.16v3.67h-9.25v-3.67h2.05v-11.48h-2.45v-3.67h7.38c0,1.29,0,2.52-.29,3.82h.07c1.04-2.74,3.38-4.25,6.52-4.25s5.04,1.44,5.54,4.25h.07c.9-2.63,2.99-4.25,6.3-4.25,4.46,0,6.52,2.84,6.52,7.34v8.24h2.16v3.67h-9.03v-3.67Z"/><path class="cls-3" d="M186.27,21.15h7.42v15.15h2.2v3.67h-7.05c0-1.26,0-2.99,.47-3.89h-.07c-1.19,2.99-3.28,4.32-6.52,4.32-4.28,0-6.33-2.59-6.33-6.59v-9h-2.52v-3.67h7.56v10.55c0,2.66,.29,4.61,3.31,4.61,2.16,0,3.92-1.73,3.92-4.71v-6.77h-2.38v-3.67Z"/><path class="cls-3" d="M199.92,15.97h-2.88v-3.67h7.92v24.01h2.16v3.67h-9.25v-3.67h2.05V15.97Z"/><path class="cls-3" d="M211.2,24.82h-2.45v-3.67h7.49v15.15h2.16v3.67h-9.25v-3.67h2.05v-11.48Z"/><path class="cls-3" d="M225.42,31.7c.14,2.99,2.45,4.82,5.98,4.82,2.41,0,3.96-.4,6.08-1.3l-.25,4c-2.34,.86-4.39,1.19-6.95,1.19-7.27,0-10.33-4.54-10.33-9.75,0-5.87,3.56-9.93,9.47-9.93,6.48,0,9.11,4.9,9.11,10.98h-13.1Zm7.63-3.46c0-2.59-1.48-4.07-3.82-4.07s-3.64,1.51-3.85,4.07h7.67Z"/><path class="cls-3" d="M242.69,24.82h-2.45v-3.67h7.31c0,1.29-.07,2.56-.32,4.32h.07c.76-3.17,2.52-4.75,5.4-4.75,.61,0,1.12,.11,1.66,.22l-.32,4.5c-.54-.11-1.12-.18-1.62-.18-2.74,0-4.68,1.87-4.68,4.97v6.08h2.38v3.67h-9.47v-3.67h2.05v-11.48Z"/><path class="cls-3" d="M260.59,31.7c.14,2.99,2.45,4.82,5.97,4.82,2.41,0,3.96-.4,6.08-1.3l-.25,4c-2.34,.86-4.39,1.19-6.95,1.19-7.27,0-10.33-4.54-10.33-9.75,0-5.87,3.56-9.93,9.47-9.93,6.48,0,9.11,4.9,9.11,10.98h-13.1Zm7.63-3.46c0-2.59-1.48-4.07-3.82-4.07s-3.64,1.51-3.85,4.07h7.67Z"/><path class="cls-3" d="M277.71,24.82h-2.45v-3.67h7.38c0,1.29,0,2.52-.29,3.89h.07c.94-2.48,3.24-4.32,6.51-4.32,4.46,0,6.51,2.84,6.51,7.34v8.24h2.16v3.67h-9.25v-3.67h2.05v-7.74c0-2.59-1.37-3.53-3.28-3.53-3.06,0-4.39,2.16-4.39,5v6.26h2.16v3.67h-9.04v-3.67h1.84v-11.48Z"/><path class="cls-3" d="M300.35,15.97h-2.88v-3.67h7.92v7.38c0,1.51-.18,3.2-.36,5.04h.07c1.12-2.56,3.2-4,6.37-4,4.14,0,7.27,2.99,7.27,8.6,0,5.15-2.48,11.09-10.51,11.09-3.28,0-6.62-.83-7.88-1.58V15.97Zm4.93,19.65c.68,.36,2.09,.68,3.2,.68,3.63,0,5.22-3.06,5.22-6.41,0-2.59-.94-5.08-4.07-5.08-3.35,0-4.36,2.41-4.36,4.75v6.05Z"/><path class="cls-3" d="M323.17,24.82h-2.45v-3.67h7.31c0,1.29-.07,2.56-.32,4.32h.07c.76-3.17,2.52-4.75,5.4-4.75,.61,0,1.12,.11,1.66,.22l-.32,4.5c-.54-.11-1.12-.18-1.62-.18-2.73,0-4.68,1.87-4.68,4.97v6.08h2.37v3.67h-9.47v-3.67h2.05v-11.48Z"/><path class="cls-3" d="M338.62,24.82h-2.45v-3.67h7.49v15.15h2.16v3.67h-9.25v-3.67h2.05v-11.48Z"/><path class="cls-3" d="M366.91,24.61h-3.24c.58,.72,1.22,2.02,1.22,3.64,0,4.43-3.74,6.48-7.92,6.48h-1.8c-.61,0-1.22,.43-1.22,1.01,0,.65,.39,.9,1.33,1.01l6.23,.68c3.24,.36,5.04,1.73,5.04,4.97,0,2.74-2.2,7.05-9.93,7.05s-9.5-2.74-9.5-5.04c0-1.62,.79-3.46,4.14-4.25v-.07c-1.62-.36-2.56-1.08-2.56-2.81,0-1.87,1.8-2.81,3.63-3.13v-.07c-3.56-1.15-4.71-3.49-4.71-6.23,0-4.36,3.31-7.13,8.46-7.13,1.55,0,2.66,.22,3.96,.43h6.88v3.46Zm-12.96,16.49c-.94,.32-2.09,1.12-2.09,2.2,0,1.76,2.02,2.48,5.07,2.48,2.23,0,4.86-.86,4.86-2.59,0-1.15-.79-1.33-2.48-1.51l-5.36-.58Zm2.41-10.04c3.13,0,4.21-1.73,4.21-3.38,0-1.98-1.76-3.28-4.03-3.28s-4.18,.97-4.18,3.46c0,1.98,1.47,3.2,4,3.2Z"/><path class="cls-3" d="M380.35,27.99c0-2.84-1.19-3.6-3.56-3.6-.72,0-2.27,.22-3.13,.54v2.52h-4.32v-4.79c1.22-.68,4.18-1.94,7.52-1.94,5.04,0,8.24,1.76,8.24,7.24,0,3.1-.11,5.69-.18,8.35h2.12v3.67h-6.33v-1.15c0-1.22,.07-1.87,.25-2.59h-.07c-1.26,2.84-2.99,4.17-6.16,4.17-4.25,0-6.3-2.52-6.3-5.47,0-2.7,1.8-4.46,3.78-5.18,1.91-.68,4.46-.86,8.14-.86v-.9Zm-1.48,4c-4.1,0-5.4,.86-5.4,2.48,0,1.12,.79,2.27,2.77,2.27s4.03-1.3,4.03-4.75h-1.4Z"/><path class="cls-3" d="M402.32,15.97h-2.88v-3.67h7.92v24.01h2.16v3.67h-7.09c0-1.37,.14-2.45,.43-3.64h-.07c-1.15,2.63-3.24,4.07-6.41,4.07-4.14,0-7.67-2.99-7.67-8.6,0-5.15,2.48-11.09,10.51-11.09,.86,0,2.09,.14,3.1,.43v-5.18Zm-.14,9.54c-.68-.36-2.09-.68-3.2-.68-3.63,0-5,2.88-5,5.8s1.4,5.47,3.85,5.47c2.66,0,4.36-2.38,4.36-5.25v-5.33Z"/><path class="cls-3" d="M416.63,31.7c.14,2.99,2.45,4.82,5.98,4.82,2.41,0,3.96-.4,6.08-1.3l-.25,4c-2.34,.86-4.39,1.19-6.95,1.19-7.27,0-10.33-4.54-10.33-9.75,0-5.87,3.56-9.93,9.47-9.93,6.48,0,9.11,4.9,9.11,10.98h-13.1Zm7.63-3.46c0-2.59-1.47-4.07-3.81-4.07s-3.63,1.51-3.85,4.07h7.67Z"/></g><g><path class="cls-2" d="M82.12,63.68h1.2l5.08-12.36h2.48l4.7,12.36h1.24v1.64h-5.12v-1.64h1.28l-1.2-3.48h-4.92l-1.3,3.48h1.44v1.64h-4.88v-1.64Zm7.7-9.2c-.22-.62-.3-.98-.36-1.28h-.04c-.06,.28-.14,.66-.38,1.28l-1.54,3.96h3.7l-1.38-3.96Z"/><path class="cls-2" d="M104.09,57.9l-.04-1.24c-.32-.18-.8-.34-1.7-.34-1.04,0-2.1,.24-2.1,1.26,0,.8,.68,1.02,1.32,1.16l2.54,.5c1.18,.24,2.52,.74,2.52,2.86,0,2.74-2.36,3.46-4.66,3.46-1.76,0-3.12-.38-3.78-.62l-.04-2.82h2l.04,1.38c.4,.12,1.1,.42,2.22,.42,1.06,0,2.1-.4,2.1-1.46,0-.88-.66-1.16-1.5-1.32l-1.66-.3c-1.6-.3-3.34-.9-3.34-2.88,0-2.44,2.14-3.28,4.42-3.28,1.7,0,3,.48,3.62,.68l.04,2.54h-2Z"/><path class="cls-2" d="M114.29,57.9l-.04-1.24c-.32-.18-.8-.34-1.7-.34-1.04,0-2.1,.24-2.1,1.26,0,.8,.68,1.02,1.32,1.16l2.54,.5c1.18,.24,2.52,.74,2.52,2.86,0,2.74-2.36,3.46-4.66,3.46-1.76,0-3.12-.38-3.78-.62l-.04-2.82h2l.04,1.38c.4,.12,1.1,.42,2.22,.42,1.06,0,2.1-.4,2.1-1.46,0-.88-.66-1.16-1.5-1.32l-1.66-.3c-1.6-.3-3.34-.9-3.34-2.88,0-2.44,2.14-3.28,4.42-3.28,1.7,0,3,.48,3.62,.68l.04,2.54h-2Z"/><path class="cls-2" d="M127.33,64.84c-.72,.3-2.1,.72-3.66,.72-3.44-.02-5.48-2.14-5.48-5.4,0-3.08,1.74-5.48,5.1-5.48,3.12,0,4.7,2.28,4.7,5.5v.3h-7.44c.02,2.02,1.5,3.32,3.56,3.32,1.3,0,2.44-.34,3.34-.8l-.12,1.84Zm-1.7-5.88v-.2c0-.86-.56-2.44-2.46-2.44s-2.54,1.38-2.62,2.64h5.08Z"/><path class="cls-2" d="M129.25,63.68h1.18l.04-7.12h-1.46v-1.64h3.7c0,.7-.06,1.42-.2,2.3h.04c.42-1.34,1.58-2.54,3.66-2.54,2.44,0,3.62,1.54,3.62,4.02,0,1.66-.06,3.32-.08,4.98h1.36v1.64h-4.78v-1.64h1.18c.02-1.52,.08-3.06,.08-4.58s-.68-2.54-2.1-2.54c-1.54,0-2.7,1.22-2.74,3.16l-.08,3.96h1.4v1.64h-4.82v-1.64Z"/></g></g><g><polygon class="cls-2" points="33.4 62.73 14.66 50.01 3.66 57.48 33.4 77.66 63.14 57.48 52.14 50.01 33.4 62.73"/><polygon class="cls-3" points="33.4 45.33 14.66 32.61 3.66 40.08 33.4 60.26 63.14 40.08 52.14 32.61 33.4 45.33"/><polygon class="cls-4" points="3.66 22.68 33.4 42.86 63.14 22.68 33.4 2.5 3.66 22.68"/><polygon class="cls-4" points="208.65 14.96 213.56 18.29 218.47 14.96 213.56 11.63 208.65 14.96"/><polygon class="cls-4" points="336.17 14.96 341.07 18.29 345.98 14.96 341.07 11.63 336.17 14.96"/></g></svg>