<?xml version="1.0" encoding="utf-8"?>
<!-- Generator: Adobe Illustrator 26.5.0, SVG Export Plug-In . SVG Version: 6.00 Build 0)  -->
<svg version="1.1" id="Laag_1" xmlns="http://www.w3.org/2000/svg" xmlns:xlink="http://www.w3.org/1999/xlink" x="0px" y="0px"
	 viewBox="0 0 52.4 1703.4" style="enable-background:new 0 0 52.4 1703.4;" xml:space="preserve">
<style type="text/css">
	.st0{clip-path:url(#SVGID_00000163070587600515970430000006955722136583358337_);}
	.st1{fill:#E30613;}
	.st2{fill:#0090D7;}
	.st3{fill:#FFD100;}
	.st4{fill:#702283;}
	.st5{fill:#F28E00;}
	.st6{fill:#BCCF00;}
</style>
<g>
	<g>
		<g>
			<defs>
				<rect id="SVGID_1_" y="-568.8" width="52.4" height="2483.3"/>
			</defs>
			<clipPath id="SVGID_00000178906872020896530260000009695560991066630568_">
				<use xlink:href="#SVGID_1_"  style="overflow:visible;"/>
			</clipPath>
			<g style="clip-path:url(#SVGID_00000178906872020896530260000009695560991066630568_);">
				<g>
					<path class="st1" d="M136.8,1237.7c-15.3,20.5-36.8,35.3-60.9,42.6c-18.2,16.8-69,254.9-43,354.2c0.6,2.3,1.2,4.5,1.9,6.5
						c23.3,71,45.2,115,129.5,134.6c38.1,8.9,23.5-155.8,59.1-170.8C202.4,1555.9,117.6,1344,136.8,1237.7z"/>
					<path class="st2" d="M112.1-500.9c-18,30.9-45.5,54.9-78,68.8c-23.2,26.8-57,381,0,508.3C125.7,67.4,212.8,39.5,290.7-4
						C253.9-68.7,102.4-350.1,112.1-500.9"/>
					<path class="st3" d="M143.3,866.7c32.3-39.7,76.5-67.4,125.3-79.8c38.7-32.7,165.1-525.1,113-717.2c-131.2-8-260.3,12-380,56.2
						C39.3,225.3,190.6,656,143.3,866.7"/>
					<path class="st4" d="M446.4,1835.8c-41.2-30.3-90.9-46.1-141.3-45.9c-45.6-22-291.3-467-289-666.1
						c125-40.6,255-53.6,381.9-40.8C386.5,1188.8,347.8,1643.6,446.4,1835.8"/>
					<path class="st5" d="M273,1267.4c-36.9-52.2-89.5-90.6-149.4-110.3C78.2,1113-37.1,488.1,44.5,253
						c164.3,1.3,323.6,37.3,469,102.7C458,476.5,232.2,1000.5,273,1267.4"/>
					<path class="st6" d="M1245.2,840.5c-64.7,41.2-113.8,102.1-140.9,172.8c-55.5,51.9-811.1,154.1-1088.3,42.8
						c11-196.9,63.4-385.7,150.1-556.2C307.8,573.2,922.9,874,1245.2,840.5"/>
				</g>
			</g>
		</g>
	</g>
</g>
</svg>
