<?xml version="1.0" encoding="UTF-8"?><svg id="Laag_1" xmlns="http://www.w3.org/2000/svg" xmlns:xlink="http://www.w3.org/1999/xlink" viewBox="0 0 1000 200"><defs><style>.cls-1{fill:#e30613;}.cls-2{fill:#0090d7;}.cls-3{fill:#bccf00;}.cls-4{fill:#ffd100;}.cls-5{clip-path:url(#clippath);}.cls-6{fill:none;}.cls-7{fill:#702283;}.cls-8{fill:#f28e00;}</style><clipPath id="clippath"><rect class="cls-6" x="0" y="0" width="1000" height="200"/></clipPath></defs><g class="cls-5"><g><path class="cls-7" d="M740.23,89.25c15.21,11.22,26.27,27.06,31.79,44.94,12.79,13.71,196.33,51.33,266.01,28.42,.41-48.76-9.43-96.22-27.99-139.71-35.86,15.79-191.37,79.92-269.8,66.36"/><path class="cls-3" d="M580.1,108.18c-14.38-6.92-91-32.02-98.39-45.98-12.77-9.36-170.95-11.67-225.15,18.32,7.34,40.51,29.66,69.54,34.19,97.84-2.54-15.91,16.78,32.67,269.52-52.55"/><path class="cls-3" d="M570.63,77.95c-14.38-6.92-26.06-18.31-33.45-32.27-12.77-9.36-170.95-11.67-225.15,18.32,7.34,40.51,22.98,78.34,45.23,111.5,27.27-18.75,146.17-96.44,213.37-97.54"/><path class="cls-4" d="M258.18,47.71c-13.26,13.46-21.71,30.84-24.37,49.36-10.48,15.54-185.88,81.41-258.29,69.68-8.03-48.1-5.74-96.51,5.79-142.37,37.89,9.98,201.51,49,276.86,23.33"/><path class="cls-8" d="M15.77,129.77c14.51-12.16,24.55-28.65,28.9-46.81,11.91-14.48,193.49-63.83,264.89-45.53,3.64,48.53-3.08,96.42-18.82,140.93-37.01-13.4-197.21-67.19-274.97-48.6"/><path class="cls-2" d="M627.77,133.97c14.51-12.16,24.55-28.65,28.9-46.81,11.91-14.48,193.49-63.83,264.89-45.52,3.64,48.52-3.08,96.42-18.82,140.93-37.01-13.4-197.21-67.19-274.97-48.6"/><path class="cls-1" d="M442.77,81.77c15.21,11.22,26.27,27.06,31.79,44.94,12.79,13.71,196.32,51.33,266.01,28.42,.41-48.76-9.43-96.22-27.99-139.71-35.87,15.79-191.37,79.92-269.8,66.36"/></g></g></svg>