<svg id="Laag_36" data-name="Laag 36" xmlns="http://www.w3.org/2000/svg" viewBox="0 0 135 120"><defs><style>.cls-1,.cls-2{fill:#221e1b;}.cls-1{fill-rule:evenodd;}</style></defs><path class="cls-1" d="M67.5,0A61.52,61.52,0,0,0,48.05,119.89c3.08.57,4.2-1.33,4.2-3,0-1.46,0-6.31-.08-11.45-17.11,3.72-20.72-7.26-20.72-7.26-2.8-7.11-6.84-9-6.84-9C19,85.4,25,85.48,25,85.48c6.17.43,9.43,6.34,9.43,6.34,5.48,9.41,14.39,6.69,17.9,5.11.55-4,2.14-6.69,3.9-8.22-13.66-1.56-28-6.83-28-30.4a23.85,23.85,0,0,1,6.34-16.52c-.63-1.55-2.74-7.8.6-16.28,0,0,5.17-1.65,16.92,6.31a58.36,58.36,0,0,1,30.81,0c11.74-8,16.9-6.31,16.9-6.31,3.35,8.48,1.24,14.73.61,16.28a23.8,23.8,0,0,1,6.33,16.52c0,23.62-14.39,28.83-28.09,30.35,2.2,1.91,4.17,5.65,4.17,11.39,0,8.23-.07,14.86-.07,16.88,0,1.64,1.11,3.56,4.22,3A61.53,61.53,0,0,0,67.5,0Z"/><path class="cls-2" d="M29.28,88.33c-.13.3-.62.4-1.05.19s-.7-.62-.56-.93a.78.78,0,0,1,1.06-.19c.45.2.71.62.55.93Zm-.76-.56"/><path class="cls-2" d="M31.77,91.11c-.29.27-.86.14-1.25-.29a.93.93,0,0,1-.18-1.28c.3-.27.86-.14,1.26.29s.48,1,.17,1.28Zm-.58-.63"/><path class="cls-2" d="M34.2,94.65c-.38.26-1,0-1.38-.53a1.09,1.09,0,0,1,0-1.47c.38-.26,1,0,1.38.52s.37,1.21,0,1.48Zm0,0"/><path class="cls-2" d="M37.52,98.07c-.34.38-1.05.27-1.58-.23s-.69-1.2-.35-1.57,1.07-.27,1.59.23.7,1.2.34,1.57Zm0,0"/><path class="cls-2" d="M42.11,100.06c-.15.48-.84.7-1.54.5s-1.15-.78-1-1.27.84-.71,1.54-.49,1.15.77,1,1.26Zm0,0"/><path class="cls-2" d="M47.14,100.43c0,.51-.57.93-1.3.94s-1.34-.4-1.34-.9.57-.93,1.31-.94,1.33.4,1.33.9Zm0,0"/><path class="cls-2" d="M51.83,99.63c.08.5-.42,1-1.15,1.14s-1.38-.18-1.47-.67.43-1,1.14-1.14,1.38.17,1.48.67Zm0,0"/></svg>